<?xml version="1.0" encoding="UTF-8"?>
<svg id="Layer_2" data-name="Layer 2" xmlns="http://www.w3.org/2000/svg" viewBox="0 0 489.63 114.34">
  <defs>
    <style>
      .cls-1 {
        font-size: 19.99px;
      }

      .cls-1, .cls-2, .cls-3 {
        fill: #fff;
      }

      .cls-1, .cls-3 {
        font-family: Poppins-Regular, Poppins;
      }

      .cls-2 {
        stroke-width: 0px;
      }

      .cls-3 {
        font-size: 49.97px;
      }
    </style>
  </defs>
  <g id="Layer_1-2" data-name="Layer 1">
    <g>
      <g id="Layer_2-2" data-name="Layer 2">
        <path class="cls-2" d="m311.53,37.72l-5.45-9.39h1.06q.15,0,.3.15c.15,0,.15.15.15.3l4.24,7.27c.15.15.15.3.3.45,0,.15.15.15.15.3,0,0,.15-.15.15-.3.15-.15.15-.3.3-.45l4.24-7.27c0-.15.15-.15.15-.15.15,0,.15-.15.3-.15h1.06l-.15.15-5.45,9.24v6.51h-1.21l-.15-6.67h0Z"/>
        <polygon class="cls-2" points="292.89 35.9 299.26 35.9 299.26 37.12 292.89 37.12 292.89 44.24 291.68 44.24 291.68 28.48 300.32 28.48 300.32 29.54 292.89 29.54 292.89 35.9"/>
        <rect class="cls-2" x="280.77" y="28.48" width="1.21" height="15.91"/>
        <path class="cls-2" d="m277.44,64.69c0,4.39-3.48,8.03-7.73,8.03h-6.67c-.61,0-1.06-.45-1.06-1.21,0-.61.45-1.21,1.06-1.21h6.67c3.03,0,5.61-2.58,5.61-5.76v-6.97c0-.61.45-1.21,1.06-1.21s1.06.45,1.06,1.21v7.12Z"/>
        <path class="cls-2" d="m269.72,0c4.24,0,7.73,3.64,7.73,8.03v6.97c0,.61-.45,1.21-1.06,1.21s-1.06-.45-1.06-1.21v-6.97c0-3.18-2.58-5.76-5.61-5.76h-6.67c-.61,0-1.06-.45-1.06-1.21s.45-1.06,1.06-1.06h6.67Z"/>
        <polygon class="cls-2" points="266.53 31.06 266.53 44.24 263.5 44.24 263.5 31.06 258.66 31.06 258.66 28.48 271.38 28.48 271.38 31.06 266.53 31.06"/>
        <path class="cls-2" d="m246.69,38.33c-.3-.3-.45-.61-.76-.76h0c.45-.15.91-.3,1.36-.61.45-.3.91-.61,1.06-1.06.3-.45.61-.76.76-1.36.15-.45.3-1.06.3-1.51,0-.61-.15-1.36-.3-1.82-.15-.61-.61-1.06-1.06-1.51s-1.21-.76-1.97-.91-1.67-.3-2.88-.3h-5v15.91h3.18v-6.06h1.21c.3,0,.45,0,.61.15.15,0,.3.15.3.3l3.33,5c.15.15.3.3.45.45.15.15.45.15.76.15h2.88l-4.24-6.06Zm-2.27-2.73c-.45.15-.91.15-1.36.15h-1.82v-5h1.82c1.06,0,1.82.15,2.42.61.45.45.76,1.06.76,1.82h0c0,.3,0,.76-.15,1.06s-.3.61-.61.76c-.3.3-.61.61-1.06.61Z"/>
        <path class="cls-2" d="m222.3,28.33h0l-3.33-.15-6.51,16.21h2.73c.3,0,.61-.15.76-.3s.3-.3.45-.61l1.06-3.03h6.21l1.06,3.03c.15.15.3.45.45.61s.45.15.76.15h2.73l-6.36-15.91Zm-3.94,9.7l1.82-4.85c.15-.3.15-.61.3-.91v-.15.3c.15.3.15.61.3.76l1.82,4.85h-4.24Z"/>
        <path class="cls-2" d="m208.82,8.03v6.97c0,.61-.45,1.21-1.06,1.21s-1.06-.45-1.06-1.21v-6.97c-.15-4.39,3.33-8.03,7.57-8.03h6.67c.61,0,1.06.45,1.06,1.21s-.45,1.21-1.06,1.21h-6.67c-3.03-.15-5.45,2.42-5.45,5.61Z"/>
        <path class="cls-2" d="m208.82,64.69c0,3.18,2.42,5.76,5.61,5.76h6.67c.61,0,1.06.45,1.06,1.21,0,.61-.45,1.21-1.06,1.21h-6.67c-4.24,0-7.73-3.64-7.73-8.03v-6.97c0-.61.45-1.21,1.06-1.21s1.06.45,1.06,1.21v6.82Z"/>
        <path class="cls-2" d="m203.21,28.48v15.91h-1.21v-13.79l-6.51,10.6c-.15.15-.3.3-.61.3h-.15c-.3,0-.45-.15-.61-.3l-6.67-10.6v13.79h-1.21v-15.91h1.21c.15,0,.15.15.3.15l6.82,10.91c.15.15.15.3.3.45v-.15c0-.15.15-.3.15-.3l6.67-10.91q.15-.15.3-.15h1.21Z"/>
        <path class="cls-2" d="m175.64,36.81c.45.3.76.61,1.06,1.06h0c.3.45.3.91.3,1.51s-.15,1.21-.45,1.82c-.3.61-.61,1.06-1.21,1.51-.45.45-1.06.76-1.82,1.06s-1.51.3-2.42.3c-1.21,0-2.27-.15-3.18-.61s-1.67-.91-2.27-1.51h0l.45-.61c.15-.15.3-.15.45-.15s.15,0,.3.15.3.15.45.3.3.3.61.45c.15.3.45.45.76.61s.61.15,1.06.3.91.15,1.36.15c.76,0,1.36-.15,1.82-.3.61-.15,1.06-.45,1.36-.76s.61-.76.91-1.06c.15-.45.3-.91.3-1.36s-.15-.91-.3-1.21c-.3-.3-.61-.61-1.06-.91-.45-.3-.91-.45-1.51-.61s-1.06-.3-1.67-.45c-.61-.15-1.21-.3-1.67-.45-.61-.15-1.06-.45-1.51-.76s-.76-.61-1.06-1.06c-.3-.45-.45-1.06-.45-1.67s.15-1.06.3-1.51c.3-.45.61-.91,1.06-1.36.45-.3,1.06-.76,1.67-.91s1.36-.3,2.27-.3,1.82.15,2.58.3,1.51.61,2.12,1.21h0v.61c-.15.15-.3.3-.45.3s-.3-.15-.45-.15c-.15-.15-.45-.3-.76-.45-.3-.15-.61-.3-1.06-.45-.45-.15-.91-.15-1.67-.15s-1.21,0-1.67.3c-.45.15-.91.3-1.21.61-.3.3-.61.61-.76.91s-.3.76-.3,1.06c0,.45.15.91.3,1.21.3.3.61.61,1.06.91.45.15.91.3,1.51.45s1.06.3,1.67.45c.61.15,1.21.3,1.67.61.45.15,1.06.3,1.51.61Z"/>
      </g>
      <text class="cls-1" transform="translate(147.3 102.91)"><tspan x="0" y="0">Please look around</tspan></text>
      <text class="cls-3" transform="translate(354.96 52.62)"><tspan x="0" y="0">&gt;&gt;&gt;&gt;&gt;</tspan></text>
      <text class="cls-3" transform="translate(0 52.62)"><tspan x="0" y="0">&lt;&lt;&lt;&lt;&lt;</tspan></text>
    </g>
  </g>
</svg>