<?xml version="1.0" encoding="UTF-8"?>
<svg id="Layer_2" data-name="Layer 2" xmlns="http://www.w3.org/2000/svg" viewBox="0 0 1267.01 295.89">
  <defs>
    <style>
      .cls-1 {
        font-size: 129.3px;
      }

      .cls-1, .cls-2, .cls-3 {
        fill: #fff;
      }

      .cls-1, .cls-3 {
        font-family: Poppins-Regular, Poppins;
      }

      .cls-2 {
        stroke-width: 0px;
      }

      .cls-3 {
        font-size: 51.72px;
      }
    </style>
  </defs>
  <g id="Layer_2-2" data-name="Layer 2">
    <g>
      <g id="Layer_2-3" data-name="Layer 2">
        <path class="cls-2" d="m806.14,97.61l-14.11-24.3h2.74q.39,0,.78.39c.39,0,.39.39.39.78l10.98,18.82c.39.39.39.78.78,1.18,0,.39.39.39.39.78,0,0,.39-.39.39-.78.39-.39.39-.78.78-1.18l10.98-18.82c0-.39.39-.39.39-.39.39,0,.39-.39.78-.39h2.74l-.39.39-14.11,23.91v16.86h-3.14l-.39-17.25h0Z"/>
        <polygon class="cls-2" points="757.92 92.91 774.39 92.91 774.39 96.04 757.92 96.04 757.92 114.47 754.78 114.47 754.78 73.7 777.13 73.7 777.13 76.44 757.92 76.44 757.92 92.91"/>
        <rect class="cls-2" x="726.56" y="73.7" width="3.14" height="41.16"/>
        <path class="cls-2" d="m717.94,167.39c0,11.37-9.02,20.78-19.99,20.78h-17.25c-1.57,0-2.74-1.18-2.74-3.14,0-1.57,1.18-3.14,2.74-3.14h17.25c7.84,0,14.5-6.66,14.5-14.9v-18.03c0-1.57,1.18-3.14,2.74-3.14s2.74,1.18,2.74,3.14v18.42Z"/>
        <path class="cls-2" d="m697.94,0c10.98,0,19.99,9.41,19.99,20.78v18.03c0,1.57-1.18,3.14-2.74,3.14s-2.74-1.18-2.74-3.14v-18.03c0-8.23-6.66-14.9-14.5-14.9h-17.25c-1.57,0-2.74-1.18-2.74-3.14s1.18-2.74,2.74-2.74h17.25Z"/>
        <polygon class="cls-2" points="689.71 80.36 689.71 114.47 681.87 114.47 681.87 80.36 669.33 80.36 669.33 73.7 702.26 73.7 702.26 80.36 689.71 80.36"/>
        <path class="cls-2" d="m638.36,99.18c-.78-.78-1.18-1.57-1.96-1.96h0c1.18-.39,2.35-.78,3.53-1.57,1.18-.78,2.35-1.57,2.74-2.74.78-1.18,1.57-1.96,1.96-3.53.39-1.18.78-2.74.78-3.92,0-1.57-.39-3.53-.78-4.7-.39-1.57-1.57-2.74-2.74-3.92-1.18-1.18-3.14-1.96-5.1-2.35-1.96-.39-4.31-.78-7.45-.78h-12.94v41.16h8.23v-15.68h3.14c.78,0,1.18,0,1.57.39.39,0,.78.39.78.78l8.62,12.94c.39.39.78.78,1.18,1.18.39.39,1.18.39,1.96.39h7.45l-10.98-15.68Zm-5.88-7.06c-1.18.39-2.35.39-3.53.39h-4.7v-12.94h4.7c2.74,0,4.7.39,6.27,1.57,1.18,1.18,1.96,2.74,1.96,4.7h0c0,.78,0,1.96-.39,2.74s-.78,1.57-1.57,1.96c-.78.78-1.57,1.57-2.74,1.57Z"/>
        <path class="cls-2" d="m575.24,73.31h0l-8.62-.39-16.86,41.95h7.06c.78,0,1.57-.39,1.96-.78s.78-.78,1.18-1.57l2.74-7.84h16.07l2.74,7.84c.39.39.78,1.18,1.18,1.57s1.18.39,1.96.39h7.06l-16.46-41.16Zm-10.19,25.09l4.7-12.54c.39-.78.39-1.57.78-2.35v-.39.78c.39.78.39,1.57.78,1.96l4.7,12.54h-10.98Z"/>
        <path class="cls-2" d="m540.35,20.78v18.03c0,1.57-1.18,3.14-2.74,3.14s-2.74-1.18-2.74-3.14v-18.03c-.39-11.37,8.62-20.78,19.6-20.78h17.25c1.57,0,2.74,1.18,2.74,3.14s-1.18,3.14-2.74,3.14h-17.25c-7.84-.39-14.11,6.27-14.11,14.5Z"/>
        <path class="cls-2" d="m540.35,167.39c0,8.23,6.27,14.9,14.5,14.9h17.25c1.57,0,2.74,1.18,2.74,3.14,0,1.57-1.18,3.14-2.74,3.14h-17.25c-10.98,0-19.99-9.41-19.99-20.78v-18.03c0-1.57,1.18-3.14,2.74-3.14s2.74,1.18,2.74,3.14v17.64Z"/>
        <path class="cls-2" d="m525.85,73.7v41.16h-3.14v-35.67l-16.86,27.44c-.39.39-.78.78-1.57.78h-.39c-.78,0-1.18-.39-1.57-.78l-17.25-27.44v35.67h-3.14v-41.16h3.14c.39,0,.39.39.78.39l17.64,28.22c.39.39.39.78.78,1.18v-.39c0-.39.39-.78.39-.78l17.25-28.22q.39-.39.78-.39h3.14Z"/>
        <path class="cls-2" d="m454.5,95.26c1.18.78,1.96,1.57,2.74,2.74h0c.78,1.18.78,2.35.78,3.92s-.39,3.14-1.18,4.7c-.78,1.57-1.57,2.74-3.14,3.92-1.18,1.18-2.74,1.96-4.7,2.74-1.96.78-3.92.78-6.27.78-3.14,0-5.88-.39-8.23-1.57-2.35-1.18-4.31-2.35-5.88-3.92h0l1.18-1.57c.39-.39.78-.39,1.18-.39s.39,0,.78.39.78.39,1.18.78.78.78,1.57,1.18c.39.78,1.18,1.18,1.96,1.57s1.57.39,2.74.78c1.18.39,2.35.39,3.53.39,1.96,0,3.53-.39,4.7-.78,1.57-.39,2.74-1.18,3.53-1.96.78-.78,1.57-1.96,2.35-2.74.39-1.18.78-2.35.78-3.53s-.39-2.35-.78-3.14c-.78-.78-1.57-1.57-2.74-2.35-1.18-.78-2.35-1.18-3.92-1.57-1.57-.39-2.74-.78-4.31-1.18-1.57-.39-3.14-.78-4.31-1.18-1.57-.39-2.74-1.18-3.92-1.96-1.18-.78-1.96-1.57-2.74-2.74-.78-1.18-1.18-2.74-1.18-4.31s.39-2.74.78-3.92c.78-1.18,1.57-2.35,2.74-3.53,1.18-.78,2.74-1.96,4.31-2.35,1.57-.39,3.53-.78,5.88-.78s4.7.39,6.66.78c1.96.39,3.92,1.57,5.49,3.14h0v1.57c-.39.39-.78.78-1.18.78s-.78-.39-1.18-.39c-.39-.39-1.18-.78-1.96-1.18-.78-.39-1.57-.78-2.74-1.18-1.18-.39-2.35-.39-4.31-.39s-3.14,0-4.31.78c-1.18.39-2.35.78-3.14,1.57-.78.78-1.57,1.57-1.96,2.35s-.78,1.96-.78,2.74c0,1.18.39,2.35.78,3.14.78.78,1.57,1.57,2.74,2.35,1.18.39,2.35.78,3.92,1.18,1.57.39,2.74.78,4.31,1.18,1.57.39,3.14.78,4.31,1.57,1.18.39,2.74.78,3.92,1.57Z"/>
      </g>
      <text class="cls-3" transform="translate(381.16 266.3)"><tspan x="0" y="0">Please look around</tspan></text>
      <text class="cls-1" transform="translate(918.54 136.16)"><tspan x="0" y="0">&gt;&gt;&gt;&gt;&gt;</tspan></text>
      <text class="cls-1" transform="translate(0 136.16)"><tspan x="0" y="0">&lt;&lt;&lt;&lt;&lt;</tspan></text>
    </g>
  </g>
</svg>