<?xml version="1.0" encoding="UTF-8"?>
<svg id="Layer_2" data-name="Layer 2" xmlns="http://www.w3.org/2000/svg" viewBox="0 0 97.99 22.88">
  <defs>
    <style>
      .cls-1 {
        font-size: 10px;
      }

      .cls-1, .cls-2, .cls-3 {
        fill: #fff;
      }

      .cls-1, .cls-3 {
        font-family: Poppins-Regular, Poppins;
      }

      .cls-2 {
        stroke-width: 0px;
      }

      .cls-3 {
        font-size: 4px;
      }
    </style>
  </defs>
  <g id="Layer_1-2" data-name="Layer 1">
    <g>
      <g id="Layer_2-2" data-name="Layer 2">
        <path class="cls-2" d="m62.34,7.55l-1.09-1.88h.21s.03,0,.06.03c.03,0,.03.03.03.06l.85,1.46s.03.06.06.09c0,.03.03.03.03.06,0,0,.03-.03.03-.06.03-.03.03-.06.06-.09l.85-1.46s.03-.03.03-.03c.03,0,.03-.03.06-.03h.21l-.03.03-1.09,1.85v1.3h-.24l-.03-1.33h0Z"/>
        <polygon class="cls-2" points="58.62 7.19 59.89 7.19 59.89 7.43 58.62 7.43 58.62 8.85 58.37 8.85 58.37 5.7 60.1 5.7 60.1 5.91 58.62 5.91 58.62 7.19"/>
        <rect class="cls-2" x="56.19" y="5.7" width=".24" height="3.18"/>
        <path class="cls-2" d="m55.52,12.95c0,.88-.7,1.61-1.55,1.61h-1.33c-.12,0-.21-.09-.21-.24,0-.12.09-.24.21-.24h1.33c.61,0,1.12-.52,1.12-1.15v-1.39c0-.12.09-.24.21-.24s.21.09.21.24c0,0,0,1.42,0,1.42Z"/>
        <path class="cls-2" d="m53.98,0c.85,0,1.55.73,1.55,1.61v1.39c0,.12-.09.24-.21.24s-.21-.09-.21-.24v-1.39c0-.64-.52-1.15-1.12-1.15h-1.33c-.12,0-.21-.09-.21-.24s.09-.21.21-.21h1.33Z"/>
        <polygon class="cls-2" points="53.34 6.21 53.34 8.85 52.73 8.85 52.73 6.21 51.76 6.21 51.76 5.7 54.31 5.7 54.31 6.21 53.34 6.21"/>
        <path class="cls-2" d="m49.37,7.67c-.06-.06-.09-.12-.15-.15h0c.09-.03.18-.06.27-.12.09-.06.18-.12.21-.21.06-.09.12-.15.15-.27.03-.09.06-.21.06-.3,0-.12-.03-.27-.06-.36-.03-.12-.12-.21-.21-.3s-.24-.15-.39-.18-.33-.06-.58-.06h-1v3.18h.64v-1.21h.24c.06,0,.09,0,.12.03.03,0,.06.03.06.06l.67,1s.06.06.09.09c.03.03.09.03.15.03h.58l-.85-1.21Zm-.45-.55c-.09.03-.18.03-.27.03h-.36v-1h.36c.21,0,.36.03.49.12.09.09.15.21.15.36h0c0,.06,0,.15-.03.21s-.06.12-.12.15c-.06.06-.12.12-.21.12Z"/>
        <path class="cls-2" d="m44.49,5.67h0l-.67-.03-1.3,3.24h.55c.06,0,.12-.03.15-.06s.06-.06.09-.12l.21-.61h1.24l.21.61s.06.09.09.12.09.03.15.03h.55l-1.27-3.18Zm-.79,1.94l.36-.97c.03-.06.03-.12.06-.18v-.03.06c.03.06.03.12.06.15l.36.97h-.85Z"/>
        <path class="cls-2" d="m41.79,1.61v1.39c0,.12-.09.24-.21.24s-.21-.09-.21-.24v-1.39c-.03-.88.67-1.61,1.52-1.61h1.33c.12,0,.21.09.21.24s-.09.24-.21.24h-1.33c-.61-.03-1.09.49-1.09,1.12Z"/>
        <path class="cls-2" d="m41.79,12.95c0,.64.49,1.15,1.12,1.15h1.33c.12,0,.21.09.21.24,0,.12-.09.24-.21.24h-1.33c-.85,0-1.55-.73-1.55-1.61v-1.39c0-.12.09-.24.21-.24s.21.09.21.24c0,0,0,1.36,0,1.36Z"/>
        <path class="cls-2" d="m40.67,5.7v3.18h-.24v-2.76l-1.3,2.12s-.06.06-.12.06h-.03c-.06,0-.09-.03-.12-.06l-1.33-2.12v2.76h-.24v-3.18h.24s.03.03.06.03l1.36,2.18s.03.06.06.09v-.03s.03-.06.03-.06l1.33-2.18s.03-.03.06-.03h.06s.18,0,.18,0Z"/>
        <path class="cls-2" d="m35.15,7.37c.09.06.15.12.21.21h0c.06.09.06.18.06.3s-.03.24-.09.36c-.06.12-.12.21-.24.3-.09.09-.21.15-.36.21s-.3.06-.49.06c-.24,0-.45-.03-.64-.12s-.33-.18-.45-.3h0l.09-.12s.06-.03.09-.03.03,0,.06.03.06.03.09.06.06.06.12.09c.03.06.09.09.15.12s.12.03.21.06.18.03.27.03c.15,0,.27-.03.36-.06.12-.03.21-.09.27-.15s.12-.15.18-.21c.03-.09.06-.18.06-.27s-.03-.18-.06-.24c-.06-.06-.12-.12-.21-.18-.09-.06-.18-.09-.3-.12s-.21-.06-.33-.09c-.12-.03-.24-.06-.33-.09-.12-.03-.21-.09-.3-.15s-.15-.12-.21-.21c-.06-.09-.09-.21-.09-.33s.03-.21.06-.3c.06-.09.12-.18.21-.27.09-.06.21-.15.33-.18s.27-.06.45-.06.36.03.52.06.3.12.42.24h0v.12s-.06.06-.09.06-.06-.03-.09-.03c-.03-.03-.09-.06-.15-.09-.06-.03-.12-.06-.21-.09-.09-.03-.18-.03-.33-.03s-.24,0-.33.06c-.09.03-.18.06-.24.12-.06.06-.12.12-.15.18s-.06.15-.06.21c0,.09.03.18.06.24.06.06.12.12.21.18.09.03.18.06.3.09s.21.06.33.09c.12.03.24.06.33.12.09.03.21.06.3.12Z"/>
      </g>
      <text class="cls-3" transform="translate(29.48 20.59)"><tspan x="0" y="0">Please look around</tspan></text>
      <text class="cls-1" transform="translate(71.04 10.53)"><tspan x="0" y="0">&gt;&gt;&gt;&gt;&gt;</tspan></text>
      <text class="cls-1" transform="translate(0 10.53)"><tspan x="0" y="0">&lt;&lt;&lt;&lt;&lt;</tspan></text>
    </g>
  </g>
</svg>